name analog
datacolumns 19
datarows 63
range 0.452 0.483
endheader
time	ground_force_vx	ground_force_vy	ground_force_vz	ground_force_px	ground_force_py	ground_force_pz	l_ground_force_vx	l_ground_force_vy	l_ground_force_vz	l_ground_force_px	l_ground_force_py	l_ground_force_pz	ground_torque_x	ground_torque_y	ground_torque_z	l_ground_torque_x	l_ground_torque_y	l_ground_torque_z
0.452	-0.0	-0.0	-0.0	-0.0	-0.0	-0.0	-3.4597206115722656	0.4940135180950165	-502.9292602539063	-0.0	-0.0	-0.0	-0.0	-0.0	-0.0	146604.796875	34258.0546875	-1409.366455078125
0.4525	-0.0	-0.0	-0.0	-0.0	-0.0	-0.0	-3.232008218765259	1.1481819152832031	-502.4758911132813	-0.0	-0.0	-0.0	-0.0	-0.0	-0.0	146805.6875	34012.64453125	-1481.2393798828125
0.453	-0.0	-0.0	-0.0	-0.0	-0.0	-0.0	-3.4212324619293213	1.41314697265625	-501.9747314453125	-0.0	-0.0	-0.0	-0.0	-0.0	-0.0	147035.0	34034.94140625	-1387.3380126953125
0.4535	-0.0	-0.0	-0.0	-0.0	-0.0	-0.0	-3.1550421714782715	1.4746589660644531	-500.6834106445313	-0.0	-0.0	-0.0	-0.0	-0.0	-0.0	147145.421875	33917.67578125	-1366.4151611328125
0.454	-0.0	-0.0	-0.0	-0.0	-0.0	-0.0	-2.699946641921997	1.3362393379211426	-500.0753479003906	-0.0	-0.0	-0.0	-0.0	-0.0	-0.0	147376.5	33641.63671875	-1471.8675537109375
0.4545	-0.0	-0.0	-0.0	-0.0	-0.0	-0.0	-1.612777829170227	1.52406644821167	-499.8328857421875	-0.0	-0.0	-0.0	-0.0	-0.0	-0.0	147245.734375	33704.6171875	-1393.419921875
0.455	-0.0	-0.0	-0.0	-0.0	-0.0	-0.0	-0.3436484932899475	2.771409034729004	-499.78851318359375	-0.0	-0.0	-0.0	-0.0	-0.0	-0.0	148068.4375	33248.03515625	-1113.8135986328125
0.4555	-0.0	-0.0	-0.0	-0.0	-0.0	-0.0	0.3270758986473083	4.355408191680908	-500.3342895507813	-0.0	-0.0	-0.0	-0.0	-0.0	-0.0	148954.78125	33336.05078125	-831.1434326171875
0.456	-0.0	-0.0	-0.0	-0.0	-0.0	-0.0	1.8070427179336548	6.309553146362305	-503.01751708984375	-0.0	-0.0	-0.0	-0.0	-0.0	-0.0	149838.859375	33204.16796875	-204.76048278808597
0.4565	-0.0	-0.0	-0.0	-0.0	-0.0	-0.0	3.0659162998199463	7.447071075439453	-504.5241088867188	-0.0	-0.0	-0.0	-0.0	-0.0	-0.0	150907.28125	33016.0234375	169.02801513671875
0.457	-0.0	-0.0	-0.0	-0.0	-0.0	-0.0	4.364553451538086	8.37995433807373	-505.2643127441406	-0.0	-0.0	-0.0	-0.0	-0.0	-0.0	151363.078125	32964.73828125	664.96533203125
0.4575	-0.0	-0.0	-0.0	-0.0	-0.0	-0.0	4.591888904571533	8.273812294006348	-506.938720703125	-0.0	-0.0	-0.0	-0.0	-0.0	-0.0	152051.328125	33126.73046875	987.8037109375
0.458	-0.0	-0.0	-0.0	-0.0	-0.0	-0.0	3.5172855854034424	7.959288120269775	-507.584716796875	-0.0	-0.0	-0.0	-0.0	-0.0	-0.0	152111.828125	33514.078125	666.756591796875
0.4585	-0.0	-0.0	-0.0	-0.0	-0.0	-0.0	1.6462724208831787	7.860630035400391	-505.96099853515625	-0.0	-0.0	-0.0	-0.0	-0.0	-0.0	152007.125	33714.4609375	296.3817138671875
0.459	-0.0	-0.0	-0.0	-0.0	-0.0	-0.0	0.2459485977888107	8.008184432983398	-504.5638122558594	-0.0	-0.0	-0.0	-0.0	-0.0	-0.0	151557.421875	34127.578125	-172.40061950683594
0.4595	-0.0	-0.0	-0.0	-0.0	-0.0	-0.0	-0.709686279296875	8.57713508605957	-503.5530700683594	-0.0	-0.0	-0.0	-0.0	-0.0	-0.0	151481.109375	34675.3203125	-393.9658508300781
0.46	-0.0	-0.0	-0.0	-0.0	-0.0	-0.0	-1.7446496486663818	8.645709037780762	-503.1275024414063	-0.0	-0.0	-0.0	-0.0	-0.0	-0.0	151139.703125	34656.73046875	-585.7359008789062
0.4605	-0.0	-0.0	-0.0	-0.0	-0.0	-0.0	-2.62182092666626	8.675528526306152	-502.2355041503906	-0.0	-0.0	-0.0	-0.0	-0.0	-0.0	151056.765625	34970.453125	-734.5435791015625
0.461	-0.0	-0.0	-0.0	-0.0	-0.0	-0.0	-3.6671435832977295	8.772429466247559	-501.9242858886719	-0.0	-0.0	-0.0	-0.0	-0.0	-0.0	151044.046875	35041.91015625	-863.8369140625
0.4615	-0.0	-0.0	-0.0	-0.0	-0.0	-0.0	-4.127960205078125	8.764479637145996	-503.2462463378906	-0.0	-0.0	-0.0	-0.0	-0.0	-0.0	151250.59375	35346.23828125	-982.7838745117188
0.462	-0.0	-0.0	-0.0	-0.0	-0.0	-0.0	-4.444838047027588	8.302238464355469	-502.9346008300781	-0.0	-0.0	-0.0	-0.0	-0.0	-0.0	151473.984375	35509.40234375	-1072.9068603515625
0.4625	-0.0	-0.0	-0.0	-0.0	-0.0	-0.0	-4.7322540283203125	8.350970268249512	-503.5970153808594	-0.0	-0.0	-0.0	-0.0	-0.0	-0.0	151449.0	35760.5	-1085.51708984375
0.463	-0.0	-0.0	-0.0	-0.0	-0.0	-0.0	-4.967803955078125	8.637548446655273	-503.5476989746094	-0.0	-0.0	-0.0	-0.0	-0.0	-0.0	151389.875	35737.1015625	-1052.9031982421875
0.4635	-0.0	-0.0	-0.0	-0.0	-0.0	-0.0	-5.4601593017578125	8.134448051452637	-503.86077880859375	-0.0	-0.0	-0.0	-0.0	-0.0	-0.0	151206.640625	35887.00390625	-1102.35986328125
0.464	-0.0	-0.0	-0.0	-0.0	-0.0	-0.0	-5.677490234375	7.980007648468018	-504.9078063964844	-0.0	-0.0	-0.0	-0.0	-0.0	-0.0	151143.546875	35817.16015625	-1053.6170654296875
0.4645	-0.0	-0.0	-0.0	-0.0	-0.0	-0.0	-5.256739139556885	7.515926361083984	-505.1884460449219	-0.0	-0.0	-0.0	-0.0	-0.0	-0.0	151327.4375	35729.90625	-985.4850463867188
0.465	-0.0	-0.0	-0.0	-0.0	-0.0	-0.0	-4.612960815429688	6.937476634979248	-505.06451416015625	-0.0	-0.0	-0.0	-0.0	-0.0	-0.0	151286.890625	35532.7890625	-891.4398193359375
0.4655	-0.0	-0.0	-0.0	-0.0	-0.0	-0.0	-3.499891757965088	6.512474060058594	-505.6044921875	-0.0	-0.0	-0.0	-0.0	-0.0	-0.0	150968.234375	35219.09375	-618.1829833984375
0.466	-0.0	-0.0	-0.0	-0.0	-0.0	-0.0	-2.758249044418335	6.182518005371094	-504.6824951171875	-0.0	-0.0	-0.0	-0.0	-0.0	-0.0	150847.921875	35376.1640625	-299.77862548828125
0.4665	-0.0	-0.0	-0.0	-0.0	-0.0	-0.0	-1.9919438362121584	5.43581485748291	-504.0162963867188	-0.0	-0.0	-0.0	-0.0	-0.0	-0.0	150288.9375	35090.4140625	-237.3482818603516
0.467	-0.0	-0.0	-0.0	-0.0	-0.0	-0.0	-1.967524528503418	4.696866989135742	-502.4917297363281	-0.0	-0.0	-0.0	-0.0	-0.0	-0.0	149950.6875	35213.03515625	-221.35845947265625
0.4675	-0.0	-0.0	-0.0	-0.0	-0.0	-0.0	-2.4590656757354736	4.014750003814697	-502.3621520996094	-0.0	-0.0	-0.0	-0.0	-0.0	-0.0	149652.53125	34974.53515625	-348.865234375
0.468	-0.0	-0.0	-0.0	-0.0	-0.0	-0.0	-3.153078556060791	3.3965561389923096	-500.9336853027344	-0.0	-0.0	-0.0	-0.0	-0.0	-0.0	149223.71875	34930.87109375	-637.8706665039062
0.4685	-0.0	-0.0	-0.0	-0.0	-0.0	-0.0	-3.071827888488769	3.1466760635375977	-501.890625	-0.0	-0.0	-0.0	-0.0	-0.0	-0.0	148817.765625	34865.8984375	-759.07861328125
0.46900000000000003	-0.0	-0.0	-0.0	-0.0	-0.0	-0.0	-3.4745240211486816	2.4656379222869877	-501.7017211914063	-0.0	-0.0	-0.0	-0.0	-0.0	-0.0	148800.328125	34732.00390625	-907.8355712890624
0.46950000000000003	-0.0	-0.0	-0.0	-0.0	-0.0	-0.0	-3.2081570625305176	2.105215549468994	-500.2769470214844	-0.0	-0.0	-0.0	-0.0	-0.0	-0.0	148640.515625	34668.9375	-837.211669921875
0.47000000000000003	-0.0	-0.0	-0.0	-0.0	-0.0	-0.0	-3.1120078563690186	1.3177262544631958	-500.7395324707031	-0.0	-0.0	-0.0	-0.0	-0.0	-0.0	148811.234375	34576.93359375	-914.310791015625
0.47050000000000003	-0.0	-0.0	-0.0	-0.0	-0.0	-0.0	-3.057015419006348	1.0052251815795898	-501.4596862792969	-0.0	-0.0	-0.0	-0.0	-0.0	-0.0	148859.609375	34602.19140625	-896.530517578125
0.47100000000000003	-0.0	-0.0	-0.0	-0.0	-0.0	-0.0	-2.2109100818634038	0.6589979529380798	-502.3752136230469	-0.0	-0.0	-0.0	-0.0	-0.0	-0.0	149164.171875	34528.3203125	-754.3973999023438
0.47150000000000003	-0.0	-0.0	-0.0	-0.0	-0.0	-0.0	-2.108888626098633	0.876522958278656	-502.8048095703125	-0.0	-0.0	-0.0	-0.0	-0.0	-0.0	149238.8125	34390.8828125	-731.4185791015625
0.47200000000000003	-0.0	-0.0	-0.0	-0.0	-0.0	-0.0	-1.9860817193984983	-0.2649650573730469	-503.6902160644531	-0.0	-0.0	-0.0	-0.0	-0.0	-0.0	149439.625	34406.56640625	-756.80810546875
0.47250000000000003	-0.0	-0.0	-0.0	-0.0	-0.0	-0.0	-1.4863144159317017	0.1164200752973556	-505.43505859375	-0.0	-0.0	-0.0	-0.0	-0.0	-0.0	149582.390625	34184.82421875	-697.053466796875
0.47300000000000003	-0.0	-0.0	-0.0	-0.0	-0.0	-0.0	-1.3718584775924685	0.0473056361079216	-506.4817199707031	-0.0	-0.0	-0.0	-0.0	-0.0	-0.0	149903.0	34285.07421875	-726.6763916015625
0.47350000000000003	-0.0	-0.0	-0.0	-0.0	-0.0	-0.0	-1.0521284341812134	-0.2362374067306518	-505.9207153320313	-0.0	-0.0	-0.0	-0.0	-0.0	-0.0	150245.65625	34387.87109375	-550.6297607421875
0.47400000000000003	-0.0	-0.0	-0.0	-0.0	-0.0	-0.0	-0.8931542634963989	-0.4887792468070984	-506.5951843261719	-0.0	-0.0	-0.0	-0.0	-0.0	-0.0	150215.5	34311.66015625	-604.1495361328125
0.47450000000000003	-0.0	-0.0	-0.0	-0.0	-0.0	-0.0	-1.0113073587417605	-0.365057110786438	-507.15435791015625	-0.0	-0.0	-0.0	-0.0	-0.0	-0.0	150499.484375	34278.1640625	-669.2411499023438
0.47500000000000003	-0.0	-0.0	-0.0	-0.0	-0.0	-0.0	-1.017295479774475	-0.78916335105896	-505.0138244628906	-0.0	-0.0	-0.0	-0.0	-0.0	-0.0	150499.21875	34195.6953125	-687.0470581054688
0.47550000000000003	-0.0	-0.0	-0.0	-0.0	-0.0	-0.0	-0.5927718877792358	-0.8418639898300171	-506.9903564453125	-0.0	-0.0	-0.0	-0.0	-0.0	-0.0	150666.34375	34192.3203125	-522.58544921875
0.47600000000000003	-0.0	-0.0	-0.0	-0.0	-0.0	-0.0	-0.4380288422107696	-0.9301281571388244	-507.66644287109375	-0.0	-0.0	-0.0	-0.0	-0.0	-0.0	150997.609375	34111.828125	-429.7525939941406
0.47650000000000003	-0.0	-0.0	-0.0	-0.0	-0.0	-0.0	-0.1774215698242187	-0.701225996017456	-509.0630493164063	-0.0	-0.0	-0.0	-0.0	-0.0	-0.0	151382.046875	34417.30078125	-567.5131225585938
0.47700000000000004	-0.0	-0.0	-0.0	-0.0	-0.0	-0.0	-0.1252134144306183	-0.2753894925117492	-509.2479553222656	-0.0	-0.0	-0.0	-0.0	-0.0	-0.0	151486.765625	34334.5625	-415.4555358886719
0.47750000000000004	-0.0	-0.0	-0.0	-0.0	-0.0	-0.0	-0.5689418315887451	-0.2598686814308166	-509.0429382324219	-0.0	-0.0	-0.0	-0.0	-0.0	-0.0	151350.0	34505.02734375	-417.4788818359375
0.47800000000000004	-0.0	-0.0	-0.0	-0.0	-0.0	-0.0	-0.5322647094726562	-0.8514136075973511	-510.518310546875	-0.0	-0.0	-0.0	-0.0	-0.0	-0.0	151538.1875	34627.0859375	-375.5457763671875
0.47850000000000004	-0.0	-0.0	-0.0	-0.0	-0.0	-0.0	-0.3129117488861084	-1.4918150901794434	-509.9263916015625	-0.0	-0.0	-0.0	-0.0	-0.0	-0.0	151363.96875	34399.98046875	-342.5484924316406
0.47900000000000004	-0.0	-0.0	-0.0	-0.0	-0.0	-0.0	-0.4996442794799804	-1.4967952966690063	-509.2099304199219	-0.0	-0.0	-0.0	-0.0	-0.0	-0.0	151530.421875	34426.40234375	-433.2185363769531
0.47950000000000004	-0.0	-0.0	-0.0	-0.0	-0.0	-0.0	-1.2931435108184814	-1.4550387859344482	-509.9269714355469	-0.0	-0.0	-0.0	-0.0	-0.0	-0.0	151625.796875	34504.94140625	-624.2340698242188
0.48	-0.0	-0.0	-0.0	-0.0	-0.0	-0.0	-1.6899466514587402	-1.417569279670715	-509.70892333984375	-0.0	-0.0	-0.0	-0.0	-0.0	-0.0	151554.140625	34740.12109375	-714.9841918945312
0.4805	-0.0	-0.0	-0.0	-0.0	-0.0	-0.0	-2.073984146118164	-1.2322347164154053	-509.578369140625	-0.0	-0.0	-0.0	-0.0	-0.0	-0.0	151773.265625	34574.67578125	-951.0372314453124
0.481	-0.0	-0.0	-0.0	-0.0	-0.0	-0.0	-2.538639068603516	-1.4511061906814575	-509.7450256347656	-0.0	-0.0	-0.0	-0.0	-0.0	-0.0	151754.078125	34402.05859375	-950.0347290039062
0.4815	-0.0	-0.0	-0.0	-0.0	-0.0	-0.0	-2.040348052978516	-1.2405225038528442	-510.2612609863281	-0.0	-0.0	-0.0	-0.0	-0.0	-0.0	152107.40625	34504.97265625	-831.009521484375
0.482	-0.0	-0.0	-0.0	-0.0	-0.0	-0.0	-2.0788795948028564	-1.5014686584472656	-511.2038269042969	-0.0	-0.0	-0.0	-0.0	-0.0	-0.0	152225.796875	34541.38671875	-654.4686889648438
0.4825	-0.0	-0.0	-0.0	-0.0	-0.0	-0.0	-1.3381937742233276	-1.5014686584472656	-512.0382690429688	-0.0	-0.0	-0.0	-0.0	-0.0	-0.0	152455.875	34228.54296875	-699.0676879882812
0.483	-0.0	-0.0	-0.0	-0.0	-0.0	-0.0	-1.63573157787323	-1.4591058492660522	-512.5545654296875	-0.0	-0.0	-0.0	-0.0	-0.0	-0.0	152543.359375	34270.54296875	-507.0304260253906
